<svg viewBox="0 0 1735 1128" xmlns="http://www.w3.org/2000/svg">
<path d="M672 534c-2 4-4 8-6 12 85-36 167-79 235-124 20-13 42-29 52-48 5-9 5-21-1-29-6-10-15-14-23-16-6-2-12-2-14-1-99 27-184 98-243 206Zm310-3c-82 55-195 113-317 160-73 32-125 42-126 43-82 24-165 41-241 48-75 6-141 1-198-12C34 754-20 725-62 684c-14-15-26-30-37-46 23-6 73-20 130-45v-1c0 1 1 2 2 3 47 46 130 66 247 56 69-5 151-23 235-50 2-47 14-94 36-134 76-137 187-229 321-265 61-16 147 5 194 77 33 50 36 112 8 162-22 40-57 67-92 90Zm691-108c34 17 48 57 31 89-153 298-519 469-869 408-128-22-224-75-276-152 19-6 73-21 131-46 47 45 125 63 162 70 294 51 601-93 730-343 16-32 57-44 91-26ZM257 266c37-30 51-63 45-71-1-2-4-3-8-4-14-3-41-2-69 11C126 249 51 341 20 411c90-41 173-93 237-145ZM414 127c50 72 24 167-66 241C261 439 138 511 10 561c-60 26-110 39-127 42 0 0 0 0 0 0-72 19-143 30-207 27-133-4-234-47-290-123-65-87-65-206-1-335C-561 63-480-33-382-108c28-22 71-16 96 13 24 28 20 69-8 91-84 63-152 146-198 238-20 39-60 138-13 201 37 50 117 63 178 65 58 2 123-9 191-29 3-31 10-64 23-97C-77 277 22 149 160 84c81-38 195-41 254 43Z" fill="url(#gradient)" fill-opacity="0.15"/>
<path d="M725.2 718c-1.2-1.2-2-2.5-2.5-3.8-.4-1.3-.5-2.7-.2-3.9.3-1.3 1-2.5 2.1-3.5 1-1.1 2.2-1.7 3.5-2 1.3-.3 2.6-.2 3.9.3 1.4.5 2.6 1.3 3.8 2.5 1.2 1.2 2 2.5 2.5 3.8.4 1.4.5 2.7.2 4-.3 1.3-1 2.4-2.1 3.5-1 1-2.2 1.7-3.5 1.9-1.3.3-2.6.2-3.9-.3-1.4-.4-2.6-1.3-3.8-2.5Zm2.5-2.4c.7.6 1.3 1.1 2 1.3.7.3 1.4.3 2.1.2.6-.2 1.3-.5 1.8-1.1.6-.6 1-1.2 1.1-1.8.2-.7.2-1.4-.1-2.1-.2-.7-.7-1.4-1.3-2-.6-.7-1.3-1.1-2-1.4-.7-.2-1.4-.3-2.1-.2-.6.2-1.3.5-1.8 1.1-.6.6-1 1.2-1.1 1.9-.2.6-.2 1.3.1 2 .2.7.7 1.4 1.3 2.1Zm17.8 14-1.2-.5 6.3-9.9 3.2 2-7.6 12.1-4.2-2.6-.7-14.3 1.1.4-6.3 10.1-3.3-2 7.6-12.1 4.3 2.7.8 14.1Zm17.8 3.1-1.3 2.5-9.3-4.8 1.4-2.5 9.2 4.8Zm-7.5-2.3-3.5 4.6-.6-2.3 9.7 5-1.5 2.9-11.8-6.2 4.3-5.8 2.4-6.8 11.6 6.1-1.5 2.8-9.5-5 2.2-.8-1.8 5.5Zm19.1 1.3-4.4 11.7-1.1-2.3 10 3.8-1.2 3.3-12-4.6 5.1-13.3 3.6 1.4Zm9.5 3.5 3.7 1.3-4.6 13.5-3.8-1.3 4.7-13.5Zm5.9 8.2 9.9 3.1-1 3.1-9.9-3.1 1-3.1Zm12-2.4-1 3.2-10.1-3.2 2.4-1.2-3.9 12.2-3.7-1.2 4.2-13.6 12.1 3.8Zm11.7 9.3-.8 2.7-10-2.8.8-2.8 10 2.9Zm-7.8-.8-2.5 5.3-1-2.2 10.5 3-.9 3.1-12.7-3.6 2.9-6.6.9-7.1 12.7 3.5-.9 3.1-10.4-2.9 2-1.3-.6 5.7Zm9.7 10.3c-.4-.1-.7-.2-1-.5-.3-.3-.5-.6-.6-1-.1-.3-.1-.7.1-1.1.1-.4.2-.7.5-1 .3-.3.6-.5 1-.6.3-.1.7-.1 1.1 0s.8.3 1 .6c.3.3.5.6.6.9.1.4.1.8 0 1.2-.1.4-.3.7-.6 1-.2.3-.6.4-.9.5-.4.2-.8.1-1.2 0Zm16 4.1c-1.7-.4-3-1-4.1-1.9-1.1-.9-1.9-2-2.3-3.2-.4-1.3-.5-2.6-.1-4.1.3-1.4 1-2.6 1.9-3.5.9-.9 2.1-1.6 3.5-1.9 1.4-.3 2.9-.2 4.5.2 1.7.4 3 1 4.1 1.9s1.9 2 2.3 3.2c.4 1.3.5 2.6.1 4.1-.3 1.4-1 2.6-1.9 3.5-1 .9-2.1 1.5-3.5 1.9-1.4.3-2.9.2-4.5-.2Zm.8-3.4c.9.2 1.7.3 2.4.1.7-.2 1.3-.5 1.8-1 .5-.4.9-1.1 1.1-1.9.1-.7.1-1.5-.1-2.1-.2-.7-.6-1.2-1.2-1.7-.6-.5-1.3-.8-2.2-1-.9-.2-1.7-.3-2.4-.1-.7.2-1.4.5-1.8.9-.5.5-.9 1.2-1.1 2-.2.7-.1 1.5.1 2.1.2.7.6 1.2 1.2 1.7s1.3.8 2.2 1Zm22.9 5.6h-1.2l2.5-11.5 3.7.8-3 13.9-4.8-1-5.6-13.2h1.2l-2.5 11.7-3.7-.8 2.9-13.9 5 1.1 5.5 12.9Zm18.2-2.3-.6 2.8-10.2-2 .5-2.8 10.3 2Zm-7.9-.1-2 5.5-1.2-2.1 10.7 2.1-.6 3.1-13-2.5 2.4-6.8.3-7.2 12.9 2.5-.6 3.1-10.6-2 1.9-1.5-.2 5.8Zm30.3 6.4c-.3 1.2-.9 2.2-1.8 3.1-.8.8-1.9 1.3-3.1 1.7-1.2.3-2.6.3-4.1.1-1.7-.3-3-.8-4.2-1.6-1.1-.8-1.9-1.8-2.4-3-.5-1.2-.7-2.6-.4-4 .2-1.5.8-2.7 1.6-3.7.9-1 2-1.7 3.3-2.1 1.3-.5 2.8-.5 4.4-.3 1.5.3 2.8.7 3.9 1.4 1.1.7 1.9 1.6 2.5 2.7.5 1 .8 2.1.7 3.4l-3.9-.6c0-.6-.2-1.2-.5-1.7-.3-.4-.7-.8-1.3-1.2-.5-.3-1.1-.5-1.9-.6-.9-.2-1.7-.1-2.4.1-.6.2-1.2.6-1.6 1.1-.5.6-.7 1.3-.9 2.1-.1.8-.1 1.6.2 2.2.2.6.6 1.2 1.2 1.6.6.4 1.3.7 2.2.8.8.2 1.5.2 2.1 0 .6-.1 1.1-.3 1.6-.7.4-.4.7-.8.9-1.4l3.9.6Zm2.9-8 3.9.5-1.9 14.2-3.9-.5 1.9-14.2Zm11.1 1.5 3.9.5-1.9 14.2-3.9-.6 1.9-14.1Zm-9.6 4 10.5 1.4-.5 3.5-10.5-1.4.5-3.5Zm17.3 8.5.3-3.2 9.8 1-.3 3.1-9.8-.9Zm8.6-10.7 5.1 14.8-4.1-.4-4.3-13.1 1.2.1-6.7 12-4.1-.4 7.8-13.5 5.1.5Zm11.2.8-.7 12.5-1.7-1.8 10.7.5-.2 3.5-12.8-.7.7-14.2 4 .2Zm13.6.5.1 12.5-1.8-1.8h10.7v3.5H947.5l-.1-14.2h3.9Zm22.6 5.2.1 2.9-10.4.3-.1-2.9 10.4-.3Zm-7.7 1.7-.8 5.7-1.6-1.7 10.9-.3.1 3.2-13.3.3.9-7.1-1.3-7.1 13.2-.4.1 3.2-10.8.3 1.5-1.8 1.1 5.7Zm23.9 3.4-1.2.3-.5-11.7 3.8-.2.6 14.2-4.9.2-8.8-11.3 1.2-.3.6 12-3.8.2-.7-14.3 5.1-.2 8.6 11.1Zm19.5-4.7c.1.9-.1 1.7-.3 2.5-.3.8-.7 1.5-1.2 2.2-.6.6-1.3 1.2-2.1 1.6-.9.4-1.9.6-3.1.7-1.1 0-2.1 0-3.1-.3s-1.9-.7-2.7-1.3c-.8-.5-1.4-1.3-1.9-2.2-.4-.9-.7-1.9-.8-3.1-.1-1.2.1-2.3.4-3.2.4-1 .9-1.8 1.6-2.5.7-.6 1.6-1.2 2.5-1.6 1-.4 2.1-.6 3.3-.7 1.5-.1 2.9.1 4.1.5 1.2.4 2.1 1 2.9 1.8.7.8 1.2 1.7 1.5 2.8l-4 .2c-.1-.4-.4-.8-.8-1.1-.4-.4-.9-.6-1.5-.7-.6-.2-1.3-.2-2-.2-.9.1-1.6.3-2.3.6-.6.4-1 .9-1.4 1.5-.3.7-.4 1.4-.3 2.3 0 1 .3 1.7.7 2.3s1 1.1 1.7 1.3c.7.3 1.6.4 2.5.3.9 0 1.7-.2 2.4-.5.7-.3 1.3-.7 1.6-1.3.4-.5.6-1.1.7-1.8l1.6-.1Zm-6 2-.2-2.7 7.5-.5.5 7.3-2.8.2-.9-5.6.8 1-4.9.3Zm21.6-5.6.2 2.9-10.4.8-.2-2.8 10.4-.9Zm-7.6 2.1-.5 5.7-1.7-1.6 10.9-.9.2 3.2-13.2 1.1.5-7.2-1.6-7 13.1-1.1.2 3.2-10.7.9 1.4-2 1.4 5.7Zm12.7 6.2c-.4.1-.8 0-1.1-.1-.4-.2-.6-.4-.9-.8-.2-.3-.3-.6-.3-1-.1-.4 0-.8.1-1.2.2-.3.4-.6.7-.8.4-.2.7-.4 1.1-.4.4-.1.8 0 1.2.2.3.1.6.4.8.7.3.3.4.7.4 1.1 0 .4 0 .8-.2 1.1-.1.4-.4.6-.7.9-.3.2-.7.3-1.1.3Zm22.5-8.7c0 .9-.1 1.7-.3 2.5-.2.8-.6 1.6-1.1 2.2-.6.7-1.2 1.3-2.1 1.7-.8.4-1.8.7-3 .8-1.1.1-2.1.1-3.1-.1-1-.2-1.9-.6-2.7-1.2-.8-.5-1.5-1.2-2-2.1s-.8-1.9-1-3.1c-.1-1.2 0-2.3.3-3.2.4-1 .8-1.8 1.5-2.5.7-.7 1.5-1.3 2.5-1.7.9-.5 2-.7 3.2-.9 1.5-.1 2.9 0 4.1.3 1.2.4 2.2.9 2.9 1.7.8.8 1.4 1.7 1.7 2.7l-4 .5c-.1-.5-.4-.9-.9-1.2-.4-.3-.9-.5-1.5-.6-.6-.1-1.2-.2-2-.1s-1.6.3-2.2.7c-.6.4-1.1.9-1.3 1.6-.3.6-.4 1.4-.3 2.3s.3 1.7.8 2.2c.4.6 1 1 1.7 1.3.8.2 1.6.3 2.6.2.9-.1 1.7-.3 2.4-.6.6-.4 1.2-.8 1.5-1.4.4-.5.6-1.2.6-1.9l1.7-.1Zm-6 2.3-.3-2.8 7.5-.8.8 7.3-2.8.3-1.2-5.5.9.9-4.9.6Zm18.1 2.8c-1.7.2-3.2.1-4.5-.4-1.4-.4-2.4-1.2-3.3-2.2-.8-1-1.3-2.3-1.5-3.7-.2-1.5 0-2.8.6-4 .5-1.2 1.4-2.2 2.6-3 1.2-.7 2.6-1.2 4.3-1.4 1.7-.3 3.2-.1 4.5.3 1.4.5 2.4 1.2 3.3 2.3.8 1 1.3 2.2 1.5 3.7.2 1.5 0 2.8-.6 4-.5 1.2-1.4 2.2-2.6 2.9-1.2.8-2.6 1.3-4.3 1.5Zm-.4-3.5c.9-.1 1.7-.4 2.3-.8.6-.3 1.1-.9 1.4-1.5s.3-1.3.3-2.1c-.2-.8-.4-1.5-.8-2-.5-.6-1-.9-1.7-1.2-.7-.2-1.6-.3-2.5-.2-.9.2-1.7.4-2.3.8-.6.4-1.1.9-1.4 1.5-.3.7-.3 1.4-.3 2.2.2.8.4 1.4.9 2 .4.5 1 .9 1.7 1.1.7.3 1.5.3 2.4.2Zm32.4-3-1.2.2 1.6-13 4.1-.6-2.1 14.7-5 .8-5.9-11.4 1.6-.3-2.3 12.7-5 .7-6.4-13.4 4.1-.6 5.4 11.9-1.2.1 2.2-13 4.1-.6 6 11.8Zm5.7-13.6 3.9-.7 2.4 14-3.8.7-2.5-14Zm11-1.9 3.9-.7 2.5 14-3.9.7-2.5-14Zm-7.9 6.7 10.5-1.8.6 3.4-10.5 1.8-.6-3.4Zm27.2-4.6.6 2.8-10.3 2-.5-2.8 10.2-2Zm-7.3 2.9.2 5.8-1.9-1.5 10.7-2.1.6 3.2-13 2.5-.3-7.2-2.4-6.8 12.9-2.5.6 3.1-10.6 2.1 1.2-2.1 2 5.5Zm12.8-3.5 5-1.1c.6-.2 1.1-.4 1.4-.8.3-.3.4-.8.2-1.3-.1-.5-.3-.8-.7-1-.4-.2-1-.3-1.6-.1l-5.6 1.2 1.3-2.2 2.9 12.9-3.9.8-3-13.9 8.2-1.8c1.1-.3 2.1-.3 2.9-.1.9.2 1.7.6 2.3 1.2.5.6.9 1.3 1.1 2.2.2.9.2 1.7-.1 2.5-.3.7-.8 1.4-1.5 1.9-.8.6-1.6 1-2.7 1.2l-5.6 1.2-.6-2.8Zm2.3.9 4.3-1 6.5 5.4-4.5 1-6.3-5.4Zm22.3-7.1.7 2.7-10.2 2.5-.6-2.8 10.1-2.4Zm-7.2 3.2.5 5.7-2-1.3 10.6-2.6.7 3.1-12.8 3.1-.7-7.1-2.7-6.7 12.8-3.1.8 3.1-10.6 2.5 1.2-2.1 2.2 5.4Zm17-9.9 3.8-1.1 3.3 12.1-3.8 1-3.3-12Zm-5.7-.3 14.3-3.9.9 3.4-14.3 3.9-.9-3.4Zm15.4-4.3 3.8-1.1 4.2 13.5-3.7 1.2-4.3-13.6Zm10.7-3.3 3.8-1.2 4.3 13.6-3.8 1.2-4.3-13.6Zm-7 7.7 10.1-3.2 1.1 3.3-10.2 3.2-1-3.3Zm26.1-8.4 1 2.7-9.8 3.6-1-2.7 9.8-3.6Zm-6.8 4 1.1 5.7-2.1-1.1 10.2-3.7 1.1 3-12.4 4.5-1.4-7.1-3.5-6.3 12.4-4.5 1.1 3-10.2 3.7.9-2.3 2.8 5.1Zm11.9-5.4 4.8-2c.6-.2 1-.6 1.2-1 .2-.4.2-.8 0-1.3-.2-.5-.5-.8-.9-.9-.5-.1-1-.1-1.6.2l-5.3 2.1.9-2.4 5.1 12.2-3.6 1.5-5.5-13.1 7.8-3.3c1-.4 2-.6 2.9-.5.9 0 1.7.3 2.3.7.7.5 1.2 1.1 1.6 2 .3.8.4 1.6.3 2.5-.2.8-.6 1.5-1.2 2.2-.6.6-1.4 1.1-2.4 1.6l-5.3 2.2-1.1-2.7Zm2.5.4 4.1-1.7 7.2 4.2-4.2 1.8-7.1-4.3Zm20.2-11.2 1.2 2.6-9.4 4.5-1.2-2.6 9.4-4.5Zm-6.4 4.7 1.7 5.5-2.2-.9 9.8-4.7 1.4 2.9-12 5.7-2.1-6.9-4-5.9 11.8-5.7 1.4 2.8-9.7 4.7.6-2.3 3.3 4.8Zm10.4-13.1 3.5-1.8 6.5 12.7-3.5 1.8-6.5-12.7Zm9.7 5.8 3.6-1.8c.2.3.5.6.9.7.5.1.9.1 1.4 0 .6 0 1.1-.3 1.8-.6.8-.4 1.5-.8 1.8-1.3.4-.5.5-.9.3-1.4-.2-.3-.4-.5-.8-.5-.4-.1-1 .1-1.8.4l-2.5 1c-1.8.7-3.3.9-4.4.7-1.1-.3-2-.9-2.5-2-.5-.9-.6-1.8-.4-2.6.2-.9.7-1.7 1.5-2.5.8-.8 1.8-1.5 3.1-2.1 1.2-.6 2.4-1 3.5-1.1 1.1-.2 2.1 0 3 .3.9.4 1.5 1 2 1.8l-3.6 1.7c-.2-.2-.4-.4-.8-.5-.4-.1-.8-.1-1.2 0-.5.1-1.1.2-1.7.5-.7.4-1.3.9-1.7 1.3-.3.4-.4.9-.2 1.3.1.3.4.4.7.5.4 0 1-.1 1.7-.4l2.7-1c1.3-.5 2.3-.8 3.2-.9.9-.1 1.6.1 2.2.4.5.3 1 .8 1.4 1.6.4.9.5 1.8.3 2.7-.2.9-.7 1.8-1.5 2.7-.7.8-1.8 1.6-3 2.2-1.4.6-2.6 1-3.8 1.2-1.2.1-2.2 0-3.1-.4-.9-.4-1.6-1-2.1-1.9Zm31.8-13.7-1 .7-5.3-10.5 3.5-1.7 6.4 12.8-4.5 2.2-12.6-6.8 1-.8 5.3 10.7-3.4 1.7-6.4-12.7 4.6-2.3 12.4 6.7Zm13-3.2c-1.5.8-2.9 1.2-4.3 1.2-1.5 0-2.7-.3-3.9-1-1.1-.7-2-1.7-2.7-3-.6-1.3-.9-2.6-.8-3.9.1-1.4.6-2.6 1.5-3.7.8-1.1 2-2.1 3.5-2.8 1.5-.8 3-1.2 4.4-1.2 1.4 0 2.7.3 3.8 1 1.2.6 2.1 1.6 2.7 2.9.7 1.4 1 2.7.9 4-.2 1.3-.7 2.5-1.5 3.7-.9 1.1-2 2-3.6 2.8Zm-1.6-3.1c.9-.4 1.5-1 2-1.5.4-.6.7-1.3.7-1.9.1-.7 0-1.4-.4-2.1-.4-.8-.9-1.3-1.5-1.7-.5-.3-1.2-.5-1.9-.5-.8.1-1.6.3-2.4.7s-1.4.9-1.9 1.5c-.4.6-.7 1.2-.8 1.9 0 .7.1 1.4.5 2.1.4.7.8 1.3 1.4 1.6.6.4 1.3.5 2 .5.8 0 1.5-.2 2.3-.6Zm25.1-16.4c.4.8.6 1.6.7 2.5.1.8 0 1.6-.3 2.4-.2.8-.6 1.6-1.2 2.3-.7.7-1.5 1.4-2.5 1.9s-2 .9-3 1c-1 .2-2 .2-3 0-.9-.2-1.8-.7-2.6-1.3s-1.4-1.5-2-2.5c-.6-1.1-.9-2.1-.9-3.1-.1-1 .1-2 .4-2.9.4-.9 1-1.7 1.7-2.5.7-.7 1.6-1.4 2.6-1.9 1.4-.8 2.7-1.2 4-1.3 1.2-.1 2.3.1 3.3.5 1 .4 1.9 1 2.6 1.9l-3.5 1.9c-.4-.4-.8-.6-1.3-.8-.5-.1-1.1-.1-1.6 0-.6.1-1.3.3-1.9.7-.8.4-1.4.9-1.8 1.5-.5.5-.7 1.2-.7 1.9 0 .7.2 1.4.6 2.2.4.9 1 1.5 1.6 1.9.6.3 1.3.5 2.1.5.8-.1 1.6-.3 2.4-.8.8-.4 1.5-.9 2-1.5.5-.5.8-1.1 1-1.8.1-.6 0-1.3-.3-1.9l1.6-.8Zm-4.8 4.3-1.3-2.4 6.7-3.6 3.5 6.6-2.5 1.3-3.1-4.8 1.1.6-4.4 2.3Zm18-4c-1.5.8-3 1.2-4.4 1.3-1.4 0-2.7-.2-3.8-.9-1.2-.6-2.1-1.6-2.8-2.9s-1.1-2.6-1-3.9c.1-1.3.5-2.6 1.4-3.7.8-1.2 1.9-2.2 3.4-3 1.5-.8 2.9-1.2 4.4-1.3 1.4-.1 2.7.2 3.8.9 1.2.6 2.1 1.6 2.8 2.9.7 1.3 1 2.6.9 3.9 0 1.3-.5 2.5-1.3 3.7s-2 2.1-3.4 3Zm-1.7-3.1c.8-.5 1.4-1 1.8-1.6.5-.6.7-1.2.7-1.9.1-.7-.1-1.4-.5-2.1-.4-.7-.9-1.2-1.5-1.6-.6-.3-1.2-.5-2-.4-.7 0-1.5.3-2.3.7s-1.4 1-1.8 1.6c-.5.6-.7 1.2-.8 1.9 0 .7.2 1.4.6 2.1.3.7.8 1.2 1.4 1.6.6.3 1.3.4 2.1.4.7 0 1.5-.3 2.3-.7Zm7.8-6 3.5-2c.3.3.6.5 1 .6.4.1.9.1 1.4 0s1.1-.4 1.7-.7c.8-.5 1.4-1 1.8-1.5.3-.4.4-.9.2-1.3-.2-.3-.5-.5-.9-.5-.3-.1-.9.1-1.8.5l-2.4 1.1c-1.8.8-3.2 1.1-4.4 1-1.1-.2-2-.8-2.6-1.9-.5-.9-.6-1.7-.5-2.6.2-.9.6-1.7 1.4-2.5.7-.9 1.7-1.6 2.9-2.3 1.2-.7 2.3-1.1 3.5-1.3 1.1-.2 2.1-.2 3 .1.9.3 1.6.9 2.1 1.7l-3.5 2c-.2-.3-.5-.5-.9-.6-.3 0-.7 0-1.2.1-.5.1-1 .3-1.6.7-.7.4-1.3.8-1.6 1.3-.4.5-.4.9-.2 1.3.2.3.4.4.8.5.4 0 .9-.2 1.7-.5l2.6-1.2c1.2-.5 2.3-.9 3.1-1 .9-.1 1.6-.1 2.2.2.6.3 1.1.8 1.5 1.5.5.9.7 1.8.5 2.7-.1 1-.6 1.9-1.3 2.8-.7.9-1.7 1.7-3 2.4-1.2.7-2.5 1.2-3.6 1.4-1.2.2-2.3.1-3.2-.2-.9-.4-1.6-1-2.2-1.8Zm16.2-20.6c1-.6 2-1 2.9-1.1 1-.1 1.9.1 2.7.5.7.4 1.4 1 1.9 1.8s.7 1.7.7 2.6c0 .8-.2 1.7-.8 2.5-.5.8-1.3 1.5-2.3 2.1l-5.3 3.2-1.6-2.7 5.1-3.1c.5-.3.9-.7 1-1.1.1-.5.1-.9-.2-1.4s-.7-.8-1.2-.8c-.4-.1-.9 0-1.5.3l-4.7 2.9.5-2.4 6.7 11-3.3 2-7.4-12.1 6.8-4.2Zm19.2-5.6 1.6 2.4-8.7 5.8-1.6-2.4 8.7-5.8Zm-5.7 5.5 2.4 5.3-2.3-.6 9.1-6 1.7 2.6-11 7.3-3-6.5-4.9-5.4 11-7.2 1.8 2.6-9.1 6 .4-2.4 3.9 4.3Zm7.4-13.8 7.5 10.1-2.5-.4 8.6-6.4 2.1 2.8-10.3 7.7-8.5-11.4 3.1-2.4Z" fill="#FFB86A"/>
<defs>
<linearGradient id="gradient" x1="371" y1="82" x2="359" y2="804" gradientUnits="userSpaceOnUse">
<stop stop-color="#615FFF"/>
<stop offset="1" stop-color="#05DF72"/>
</linearGradient>
</defs>
</svg>
