<svg width="145" height="145" viewBox="0 0 145 145" fill="none" xmlns="http://www.w3.org/2000/svg">
<mask id="mask0_2171_12151" style="mask-type:luminance" maskUnits="userSpaceOnUse" x="0" y="0" width="145" height="145">
<path d="M0 0H145V145H0V0Z" fill="white"/>
</mask>
<g mask="url(#mask0_2171_12151)">
<path d="M145 62.75V82.2552C145 82.6354 144.979 83.0156 144.943 83.3906C144.906 83.7708 144.844 84.1458 144.766 84.5156C144.693 84.8906 144.599 85.2552 144.49 85.6198C144.38 85.9844 144.25 86.3438 144.104 86.6927C143.958 87.0469 143.797 87.3854 143.62 87.724C143.438 88.0573 143.245 88.3854 143.036 88.6979C142.823 89.0156 142.599 89.3177 142.354 89.6146C142.115 89.9062 141.859 90.1875 141.589 90.4583C141.323 90.724 141.042 90.9792 140.75 91.2188C140.453 91.4635 140.151 91.6875 139.833 91.901C139.516 92.1094 139.193 92.3073 138.859 92.4844C138.521 92.6667 138.177 92.8281 137.828 92.9688C137.479 93.1146 137.12 93.2448 136.755 93.3542C136.391 93.4635 136.026 93.5573 135.661 93.6354C135.286 93.7083 134.911 93.7656 134.536 93.8021C134.156 93.8385 133.781 93.8594 133.396 93.8594H93.849V133.401C93.849 133.781 93.8333 134.161 93.7969 134.536C93.7552 134.917 93.7031 135.292 93.6302 135.667C93.5521 136.036 93.4635 136.401 93.349 136.766C93.2396 137.13 93.1094 137.49 92.9688 137.839C92.8229 138.193 92.6615 138.536 92.4792 138.87C92.3073 139.203 92.1042 139.531 91.8958 139.844C91.6875 140.161 91.4583 140.464 91.2188 140.76C90.9792 141.052 90.724 141.333 90.4531 141.604C90.1823 141.87 89.901 142.125 89.6094 142.37C89.3177 142.609 89.0104 142.833 88.6979 143.047C88.3802 143.26 88.0521 143.453 87.7188 143.63C87.3854 143.812 87.0417 143.974 86.6875 144.12C86.3385 144.266 85.9792 144.391 85.6198 144.5C85.2552 144.615 84.8854 144.703 84.5156 144.781C84.1406 144.854 83.7656 144.906 83.3854 144.953C83.0104 145 82.6302 145.01 82.25 145.01H62.7448C62.3646 145.01 61.9844 144.99 61.6094 144.953C61.2292 144.917 60.8542 144.859 60.4844 144.781C60.1094 144.703 59.7396 144.615 59.375 144.5C59.0156 144.391 58.6563 144.266 58.3073 144.12C57.9531 143.974 57.6094 143.812 57.276 143.63C56.9427 143.453 56.6198 143.255 56.3021 143.047C55.9844 142.833 55.6771 142.609 55.3854 142.37C54.7969 141.885 54.2604 141.349 53.776 140.76C53.5365 140.464 53.3125 140.161 53.099 139.844C52.8906 139.531 52.6927 139.203 52.5156 138.87C52.3385 138.536 52.1719 138.193 52.0312 137.839C51.8802 137.49 51.7552 137.13 51.6458 136.766C51.5365 136.406 51.4427 136.036 51.3698 135.667C51.2917 135.292 51.2396 134.917 51.2031 134.536C51.1667 134.161 51.1458 133.781 51.1458 133.401V93.8542H11.599C11.2188 93.8542 10.8385 93.8333 10.4583 93.7969C10.0833 93.7604 9.70833 93.7083 9.33333 93.6354C8.96354 93.5625 8.59375 93.4688 8.22917 93.3594C7.86458 93.25 7.51042 93.1198 7.16146 92.974C6.80729 92.8281 6.46875 92.6667 6.13542 92.4844C5.80208 92.3073 5.47396 92.1094 5.15625 91.901C4.52604 91.474 3.94271 90.9948 3.40625 90.4583C3.13021 90.1875 2.86979 89.9062 2.63021 89.6146C2.38542 89.3177 2.16146 89.0156 1.94792 88.6979C1.73958 88.3854 1.54167 88.0573 1.36458 87.724C1.18229 87.3854 1.02083 87.0469 0.875 86.6927C0.729167 86.3438 0.598958 85.9844 0.489583 85.6198C0.380207 85.2552 0.286459 84.8906 0.213542 84.5156C0.140626 84.1458 0.0833337 83.7708 0.046875 83.3906C0.0104177 83.0156 0 82.6354 0 82.2552V62.75C0 62.3698 0.0156247 61.9896 0.0520833 61.6094C0.09375 61.2344 0.151043 60.8594 0.229167 60.4844C0.307292 60.1146 0.406251 59.7448 0.505208 59.3802C0.609376 59.0156 0.744792 58.6615 0.890625 58.3073C1.03646 57.9583 1.19792 57.6146 1.375 57.2812C1.55208 56.9479 1.75 56.6198 1.96354 56.3021C2.17188 55.9844 2.40104 55.6823 2.64062 55.3906C2.88021 55.0938 3.13542 54.8125 3.40625 54.5469C3.67187 54.276 3.95313 54.0208 4.25 53.7812C4.54167 53.5417 4.84375 53.3125 5.16146 53.1042C5.47396 52.8906 5.79687 52.6927 6.13542 52.5156C6.47396 52.3438 6.81771 52.1823 7.16667 52.0312C7.51563 51.8854 7.86979 51.7604 8.23438 51.6458C8.59896 51.5365 8.96875 51.4479 9.33854 51.3698C9.71354 51.2969 10.0885 51.2396 10.4635 51.2031C10.8438 51.1667 11.224 51.151 11.6042 51.151H51.1458V11.6042C51.1458 11.224 51.1615 10.8438 51.2031 10.4635C51.2396 10.0833 51.2917 9.70833 51.3698 9.33854C51.4427 8.96875 51.5417 8.59896 51.6458 8.23438C51.7448 7.86979 51.8854 7.51562 52.0312 7.16146C52.1719 6.8125 52.3385 6.47396 52.5156 6.14062C52.6927 5.80208 52.8906 5.47917 53.099 5.16146C53.3125 4.84375 53.5365 4.54167 53.776 4.25C54.0208 3.95313 54.276 3.67187 54.5417 3.40625C54.8125 3.13021 55.0938 2.875 55.3854 2.63021C55.6771 2.39063 55.9844 2.16146 56.3021 1.95312C56.6146 1.74479 56.9427 1.54687 57.276 1.36979C57.6094 1.1875 57.9531 1.02604 58.3073 0.880208C58.6563 0.734376 59.0156 0.604166 59.375 0.494792C59.7396 0.385417 60.1094 0.291666 60.4844 0.21875C60.8542 0.140625 61.2292 0.0885407 61.6094 0.0520833C61.9844 0.0156247 62.3646 0 62.7448 0H82.25C82.6302 0 83.0104 0.020833 83.3854 0.0572917C83.7656 0.0937503 84.1406 0.151042 84.5156 0.234375C84.8854 0.307291 85.2552 0.40625 85.6198 0.510417C85.9844 0.609375 86.3385 0.739584 86.6875 0.880208C87.0417 1.02083 87.3854 1.18229 87.7188 1.36458C88.0521 1.54167 88.3802 1.73958 88.6979 1.94792C89.0104 2.16146 89.3177 2.38542 89.6094 2.63021C90.1979 3.10938 90.7344 3.64583 91.2188 4.23438C91.4583 4.53125 91.6875 4.83333 91.8958 5.15104C92.1042 5.46354 92.3021 5.79167 92.4792 6.125C92.6615 6.46354 92.8229 6.80208 92.9688 7.15625C93.1094 7.50521 93.2396 7.86458 93.349 8.22917C93.4635 8.58854 93.5521 8.95833 93.625 9.33333C93.7031 9.70313 93.7604 10.0781 93.8021 10.4583C93.8385 10.8385 93.8594 11.2135 93.8594 11.5938V51.151H133.396C133.776 51.151 134.156 51.1667 134.536 51.2031C134.911 51.2396 135.286 51.2969 135.661 51.3698C136.031 51.4479 136.401 51.5469 136.766 51.6458C137.125 51.75 137.484 51.8854 137.839 52.0312C138.188 52.1771 138.531 52.3385 138.865 52.5208C139.203 52.6927 139.526 52.8906 139.844 53.1042C140.161 53.3125 140.464 53.5417 140.755 53.7812C141.344 54.2656 141.88 54.8021 142.365 55.3906C142.604 55.6823 142.828 55.9896 143.042 56.3021C143.255 56.6198 143.448 56.9479 143.625 57.2812C143.807 57.6146 143.969 57.9583 144.115 58.3073C144.26 58.6615 144.391 59.0156 144.5 59.3802C144.609 59.7448 144.698 60.1146 144.776 60.4844C144.849 60.8594 144.906 61.2344 144.948 61.6094C144.995 61.9896 145 62.3698 145 62.75Z" fill="black"/>
</g>
</svg>
