<svg width="114" height="145" viewBox="0 0 114 145" fill="none" xmlns="http://www.w3.org/2000/svg">
<mask id="mask0_2171_12133" style="mask-type:luminance" maskUnits="userSpaceOnUse" x="0" y="0" width="114" height="145">
<path d="M0 0H114V145H0V0Z" fill="white"/>
</mask>
<g mask="url(#mask0_2171_12133)">
<path d="M56.9948 85.62C60.2135 93.1147 65.1198 98.8908 69.5052 105.021C72.5677 109.292 75.6302 113.667 78.0468 118.339C82.5677 127.11 79.9843 137.5 72.25 143.62C71.8125 143.964 71.3958 144.323 70.6093 144.964C71.7031 144.833 72.2604 144.761 72.8281 144.708C73.5312 144.636 74.2291 144.542 74.9271 144.432C75.625 144.323 76.3177 144.198 77.0104 144.057C77.6979 143.917 78.3854 143.761 79.0729 143.589C79.7552 143.417 80.4323 143.224 81.1093 143.021C81.7864 142.818 82.4531 142.599 83.125 142.365C83.7916 142.13 84.4479 141.88 85.0989 141.62C85.7552 141.354 86.401 141.073 87.0416 140.776C87.6823 140.485 88.3177 140.172 88.9427 139.849C89.5677 139.526 90.1875 139.188 90.7968 138.839C91.4114 138.485 92.0156 138.12 92.6093 137.74C93.2031 137.36 93.7916 136.969 94.3698 136.563C94.9427 136.156 95.5104 135.735 96.0781 135.302C96.6406 134.875 97.1823 134.427 97.7187 133.969C98.2552 133.511 98.7864 133.042 99.3021 132.563C99.8177 132.078 100.323 131.589 100.812 131.078C101.302 130.573 101.786 130.057 102.26 129.531C102.729 129.011 103.187 128.469 103.625 127.922C104.062 127.375 104.505 126.818 104.922 126.25C105.344 125.682 105.75 125.104 106.146 124.521C106.536 123.932 106.917 123.339 107.281 122.735C107.646 122.13 108 121.521 108.339 120.901C108.677 120.281 109 119.651 109.312 119.021C109.62 118.391 109.917 117.745 110.198 117.099C110.474 116.448 110.74 115.797 110.995 115.136C111.245 114.474 111.479 113.807 111.698 113.136C111.917 112.464 112.12 111.792 112.312 111.11C112.5 110.432 112.672 109.745 112.823 109.057C112.974 108.375 113.125 107.682 113.25 106.985C113.375 106.287 113.484 105.594 113.578 104.891C113.677 104.193 113.75 103.49 113.812 102.787C113.875 102.089 113.922 101.38 113.953 100.672C113.979 99.9689 113.995 99.2606 113.995 98.5575C113.948 87.3439 110.146 77.2397 104.719 67.62C99.1198 57.7085 92.0885 48.8283 84.9271 40.0418C78.526 32.1929 74.7187 23.2918 74.3906 13.1356C74.25 8.8387 74.8021 4.52621 75.0468 0.0366211C44.8177 13.0106 28.0677 36.9168 20.6198 68.3439L19.9896 68.3856L15.75 51.3595C6.66143 64.6252 0.15622 81.1252 -3.1013e-05 95.7345C-0.140655 109.776 4.08851 122.141 14.401 132.016C22.3489 139.625 31.875 143.833 43.2916 144.901C42.375 144.151 41.8073 143.693 41.2448 143.229C40.8541 142.912 40.4791 142.583 40.125 142.24C39.7656 141.901 39.4166 141.542 39.0781 141.172C38.7396 140.797 38.4166 140.417 38.1146 140.021C37.8125 139.63 37.5208 139.224 37.2448 138.807C36.9687 138.391 36.7031 137.969 36.4583 137.531C36.2083 137.099 35.9791 136.656 35.7656 136.203C35.5521 135.755 35.3541 135.292 35.1718 134.839C34.9896 134.38 34.8281 133.901 34.6823 133.422C34.5312 132.943 34.4062 132.464 34.2968 131.974C34.1875 131.49 34.0885 131 34.0156 130.505C33.9427 130.011 33.8854 129.516 33.8437 129.016C33.8073 128.516 33.7864 128.021 33.7812 127.521C33.776 127.021 33.7968 126.521 33.8281 126.021C33.8646 125.526 33.9166 125.026 33.9843 124.531C34.0573 124.037 34.1458 123.547 34.25 123.057C34.3593 122.573 34.4843 122.089 34.625 121.61C36.0364 116.896 38.7604 112.88 41.5677 108.922C46.8489 101.427 53.1146 94.6095 56.9948 85.62Z" fill="white"/>
<path d="M56.9948 85.62C53.1145 94.6095 46.8489 101.427 41.5625 108.901C38.7604 112.865 36.0312 116.88 34.6198 121.594C34.4791 122.073 34.3541 122.557 34.2448 123.042C34.1406 123.531 34.052 124.021 33.9843 124.516C33.9114 125.011 33.8593 125.511 33.8281 126.005C33.7916 126.505 33.776 127.005 33.776 127.505C33.7812 128.005 33.802 128.5 33.8385 129C33.8802 129.5 33.9375 129.995 34.0104 130.49C34.0833 130.979 34.1823 131.474 34.2916 131.958C34.401 132.448 34.5312 132.927 34.677 133.406C34.8229 133.886 34.9895 134.354 35.1666 134.823C35.3489 135.287 35.5468 135.745 35.7604 136.188C35.9739 136.636 36.2083 137.083 36.4531 137.516C36.6979 137.953 36.9635 138.37 37.2395 138.792C37.5156 139.208 37.8125 139.61 38.1198 140.005C38.427 140.396 38.7448 140.781 39.0833 141.151C39.4166 141.516 39.7656 141.875 40.125 142.219C40.4895 142.563 40.8593 142.906 41.25 143.214C41.8073 143.677 42.375 144.141 43.2968 144.891C31.8802 143.818 22.3541 139.61 14.4062 132C4.09892 122.141 -0.140663 109.776 -3.89267e-05 95.7345C0.151004 81.1252 6.66142 64.6304 15.7395 51.3595L19.9895 68.3908L20.6198 68.3491C28.0729 36.9168 44.8229 13.0262 75.052 0.0366211C74.802 4.53141 74.2552 8.8387 74.3958 13.1408C74.7239 23.3075 78.5312 32.2085 84.9323 40.0522C92.0937 48.8335 99.125 57.7189 104.724 67.6304C110.151 77.2345 113.953 87.3387 114 98.5627C114 99.271 113.99 99.9741 113.958 100.677C113.932 101.386 113.885 102.089 113.823 102.792C113.76 103.495 113.682 104.198 113.589 104.896C113.495 105.599 113.38 106.297 113.255 106.99C113.13 107.682 112.99 108.375 112.828 109.063C112.672 109.75 112.5 110.432 112.318 111.115C112.135 111.797 111.927 112.469 111.703 113.141C111.484 113.807 111.25 114.474 111 115.136C110.75 115.797 110.484 116.448 110.203 117.099C109.917 117.745 109.625 118.386 109.318 119.021C109.01 119.656 108.682 120.281 108.344 120.901C108.005 121.521 107.661 122.136 107.286 122.735C106.917 123.339 106.542 123.932 106.151 124.521C105.755 125.11 105.349 125.682 104.927 126.25C104.505 126.818 104.073 127.375 103.63 127.922C103.187 128.469 102.729 129.005 102.266 129.531C101.802 130.063 101.312 130.578 100.823 131.078C100.328 131.583 99.8229 132.078 99.3073 132.557C98.7864 133.037 98.2604 133.511 97.7239 133.969C97.1875 134.427 96.6406 134.87 96.0833 135.302C95.5208 135.735 94.9531 136.156 94.375 136.557C93.7916 136.964 93.2083 137.354 92.6145 137.735C92.0208 138.115 91.4166 138.479 90.802 138.833C90.1875 139.188 89.5729 139.516 88.9479 139.844C88.3177 140.172 87.6823 140.479 87.0416 140.771C86.401 141.068 85.7552 141.344 85.0989 141.61C84.4479 141.875 83.7864 142.12 83.1198 142.36C82.4531 142.594 81.7864 142.813 81.1093 143.016C80.4323 143.219 79.7552 143.406 79.0729 143.578C78.3906 143.75 77.7031 143.906 77.0104 144.047C76.3125 144.188 75.625 144.313 74.927 144.422C74.2343 144.531 73.5312 144.625 72.8281 144.703C72.2708 144.761 71.7083 144.833 70.6093 144.953C71.3906 144.313 71.8125 143.948 72.25 143.61C79.9895 137.49 82.5729 127.099 78.0468 118.328C75.6406 113.662 72.5781 109.297 69.5052 105.011C65.1198 98.8908 60.2135 93.1147 56.9948 85.62Z" fill="black"/>
</g>
</svg>
