<svg width="145" height="145" viewBox="0 0 145 145" fill="none" xmlns="http://www.w3.org/2000/svg">
<mask id="mask0_2171_12246" style="mask-type:luminance" maskUnits="userSpaceOnUse" x="0" y="0" width="145" height="145">
<path d="M0 0H144.724V144.724H0V0Z" fill="white"/>
</mask>
<g mask="url(#mask0_2171_12246)">
<mask id="mask1_2171_12246" style="mask-type:luminance" maskUnits="userSpaceOnUse" x="0" y="0" width="145" height="145">
<path d="M144.724 72.3594C121.927 64.9271 104.078 36.4271 99.4323 0C96.125 25.9635 86.099 47.8958 72.3594 61.0573C58.625 47.8906 48.599 25.9948 45.2865 0C40.6406 36.4271 22.7917 64.9271 0 72.3594C22.7917 79.7969 40.6406 108.292 45.2917 144.724C48.6042 118.76 58.6302 96.8333 72.3646 83.6667C86.1042 96.8333 96.1302 118.734 99.4375 144.724C104.078 108.292 121.927 79.7969 144.724 72.3594Z" fill="white"/>
</mask>
<g mask="url(#mask1_2171_12246)">
<mask id="mask2_2171_12246" style="mask-type:luminance" maskUnits="userSpaceOnUse" x="0" y="0" width="145" height="145">
<path d="M144.724 72.3594C121.927 64.9271 104.078 36.4271 99.4323 0C96.125 25.9635 86.099 47.8958 72.3594 61.0573C58.625 47.8906 48.599 25.9948 45.2865 0C40.6406 36.4271 22.7917 64.9271 0 72.3594C22.7917 79.7969 40.6406 108.292 45.2917 144.724C48.6042 118.76 58.6302 96.8333 72.3646 83.6667C86.1042 96.8333 96.1302 118.734 99.4375 144.724C104.078 108.292 121.927 79.7969 144.724 72.3594Z" fill="white"/>
</mask>
<g mask="url(#mask2_2171_12246)">
<path d="M0 0H144.724V144.724H0V0Z" fill="black"/>
</g>
</g>
</g>
</svg>
