<svg width="151" height="145" viewBox="0 0 151 145" fill="none" xmlns="http://www.w3.org/2000/svg">
<mask id="mask0_2171_12220" style="mask-type:luminance" maskUnits="userSpaceOnUse" x="0" y="0" width="151" height="145">
<path d="M0 0H150.609V144.719H0V0Z" fill="white"/>
</mask>
<g mask="url(#mask0_2171_12220)">
<mask id="mask1_2171_12220" style="mask-type:luminance" maskUnits="userSpaceOnUse" x="0" y="0" width="151" height="145">
<path d="M71.5938 72.0521V144.719C31.3438 143.182 0 111.464 0 72.0573C0 32.9531 31.3438 0.9375 71.5938 0.00520833V72.0521ZM71.5938 69.5885V70.2031C71.5938 51.1094 79.5781 33.5625 88.4896 20.9323C97.401 8.61979 109.385 0.614584 123.828 0V144.719C109.385 143.495 97.401 135.786 88.4896 123.474C79.5729 110.844 71.5938 93.2969 71.5938 73.901V69.5885ZM123.828 72.0521C123.828 52.0365 129.047 33.5625 134.271 20.625C137.036 14.1615 140.109 8.93229 143.49 5.22917C146.255 2.46354 149.016 0.614585 150.557 0.302083V144.719C149.026 143.484 145.333 141.943 143.49 138.865C140.109 135.479 137.036 130.24 134.271 123.776C129.354 111.464 123.828 94.526 123.828 76.0521V72.0521Z" fill="white"/>
</mask>
<g mask="url(#mask1_2171_12220)">
<mask id="mask2_2171_12220" style="mask-type:luminance" maskUnits="userSpaceOnUse" x="0" y="0" width="151" height="145">
<path d="M71.5938 72.0521V144.719C31.3438 143.182 0 111.464 0 72.0573C0 32.9531 31.3438 0.9375 71.5938 0.00520833V72.0521ZM71.5938 69.5885V70.2031C71.5938 51.1094 79.5781 33.5625 88.4896 20.9323C97.401 8.61979 109.385 0.614584 123.828 0V144.719C109.385 143.495 97.401 135.786 88.4896 123.474C79.5729 110.844 71.5938 93.2969 71.5938 73.901V69.5885ZM123.828 72.0521C123.828 52.0365 129.047 33.5625 134.271 20.625C137.036 14.1615 140.109 8.93229 143.49 5.22917C146.255 2.46354 149.016 0.614585 150.557 0.302083V144.719C149.026 143.484 145.333 141.943 143.49 138.865C140.109 135.479 137.036 130.24 134.271 123.776C129.354 111.464 123.828 94.526 123.828 76.0521V72.0521Z" fill="white"/>
</mask>
<g mask="url(#mask2_2171_12220)">
<path d="M0 0H150.62V144.719H0V0Z" fill="black"/>
</g>
</g>
</g>
</svg>
