<svg id="Capa_1" data-name="Capa 1" xmlns="http://www.w3.org/2000/svg" xmlns:xlink="http://www.w3.org/1999/xlink" viewBox="0 0 314.74 479.77"><defs><style>.cls-1{fill:url(#Degradado_sin_nombre_3);}</style><radialGradient id="Degradado_sin_nombre_3" cx="182.61" cy="-41.8" r="646.47" gradientUnits="userSpaceOnUse"><stop offset="0.16" stop-color="#ffa45a"/><stop offset="0.27" stop-color="#ff9e5a"/><stop offset="0.41" stop-color="#ff8e5a"/><stop offset="0.57" stop-color="#ff735a"/><stop offset="0.74" stop-color="#ff4e5a"/><stop offset="0.74" stop-color="#ff4c5a"/></radialGradient></defs><path d="M240.21,320.36l74.53,159.25H276.31L211.12,335H223l-65.18,144.6H119.39l74.53-159.25ZM161,446.07V416.76H271.43v29.31Z"/><path class="cls-1" d="M68,473.87c-6.24-13.85-9.06-27.09-10.14-42.23-2.1-29.43,4.87-57,17.43-83.33C86.64,324.43,102.1,303.2,119,283c17.4-20.89,35.14-41.49,52.28-62.58,11.78-14.5,22.25-30,29.74-47.25,13.85-32,13.62-64.31,1.74-96.69-7-19.14-17.76-36.25-30.56-52-6.49-8-14.28-16.59-21-24.4l.65,4.58c.35,2.4.59,4.8.74,7.22.42,6.92.66,12.06.56,19.71-.29,23.25-6.35,45.25-15.66,66.43-9.91,22.55-23.43,42.91-38.36,62.35-15.78,20.55-32.19,40.62-47.86,61.26-16,21.06-29.68,43.54-39,68.45C2.32,316.45-2.68,343.57,1.46,371.83c5.44,37,21.59,68.5,49.8,93.4,5.84,5.16,13.24,9.79,19.43,14.54Z"/><path class="cls-1" d="M184.43,306v-.12h65.18V306l0,0,50.24,108c12.81-25.33,17-52.49,13.88-81.16-2.43-22.53-9.88-43.56-19.57-63.87-9.33-19.58-21.16-37.73-32.56-56.13-10.59-17.09-21.42-34.06-29.27-52.67-1.81-4.29-3.32-8.71-5.2-13.67-.16,1.13-.25,1.62-.3,2.11-1.82,17.85-5.52,35.25-12.43,51.89-8.54,20.56-20.9,38.73-35.16,55.62-13.91,16.48-28.39,32.48-42.39,48.88-14.83,17.35-27.85,36-37.8,56.59C87.25,386.05,85.56,411.62,88.83,439c1.16,9.74,6.22,31,9.81,40.65Z"/></svg>