<svg width="263" height="166" viewBox="0 0 263 166" fill="none" xmlns="http://www.w3.org/2000/svg">
<mask id="mask0_2095_1346" style="mask-type:luminance" maskUnits="userSpaceOnUse" x="90" y="29" width="173" height="137">
<path d="M90.543 29.1665H262.258V165.642H90.543V29.1665Z" fill="white"/>
</mask>
<g mask="url(#mask0_2095_1346)">
<mask id="mask1_2095_1346" style="mask-type:luminance" maskUnits="userSpaceOnUse" x="91" y="30" width="172" height="136">
<path d="M254.5 77.4123C243.402 78.0937 232.609 80.2839 222.109 83.9465C217.194 85.6743 212.401 87.7064 207.754 90.067L208.876 83.4598L212.669 59.9269C215.194 45.5931 216.462 37.2094 216.474 34.7636C216.584 33.5346 216.145 32.5612 215.157 31.8311C214.267 31.2471 212.706 30.955 210.474 30.955C207.267 30.955 204.852 31.5878 203.254 32.8532C201.644 34.1309 200.449 36.2238 199.669 39.1441C197.73 46.6152 195.315 53.916 192.437 61.0707C189.949 67.0209 187.619 71.45 185.424 74.3703C183.229 77.2906 181.4 78.7508 179.948 78.7629C177.899 78.7629 176.863 76.9134 176.863 73.2022C176.936 70.1845 177.229 67.1912 177.753 64.2222C178.339 60.5597 179.009 56.7268 179.802 52.7357C180.375 49.8154 181.156 46.5422 182.131 42.9405C183.217 38.4627 183.753 35.8222 183.753 35.0435C183.851 33.8145 183.436 32.7924 182.509 31.9771C181.692 31.2957 180.204 30.955 178.058 30.955C174.277 30.955 171.497 31.5878 169.728 32.8532C167.972 34.1187 166.606 36.2116 165.679 39.1441C163.875 44.5345 162.435 50.0222 161.362 55.6073C157.472 56.5199 153.533 57.1283 149.557 57.4447C148.764 49.937 146.105 43.634 141.593 38.5113C137.068 33.3886 131.105 30.8333 123.69 30.8455C117.69 30.7847 112.189 32.4152 107.177 35.7127C102.018 39.1562 98.1156 43.6949 95.4813 49.3165C92.5422 55.5951 91.1275 62.1902 91.2494 69.1259C91.2129 74.4311 92.2983 79.5052 94.4935 84.3359C96.5667 88.984 99.7132 92.7318 103.921 95.5912C108.055 98.4142 113.055 99.8257 118.897 99.8257C125.824 99.8257 132.007 97.3677 137.459 92.4519C142.91 87.536 146.557 80.9775 148.41 72.7763C152.154 72.6425 155.862 72.2044 159.545 71.4865C159.423 73.8106 159.374 76.1833 159.374 78.6291C159.374 84.6766 160.752 89.7141 163.533 93.766C166.301 97.818 169.875 99.8378 174.241 99.85C178.131 99.85 181.839 98.0126 185.351 94.3623C188.851 90.7119 191.583 85.3823 193.534 78.3614C192.656 85.0781 191.876 90.2495 191.193 93.8512L190.754 97.2096C180.339 105.204 172.277 112.298 166.594 118.516C160.899 124.733 157.008 130.209 154.899 134.967C152.862 139.42 151.813 144.093 151.752 148.996C151.752 153.973 153.313 157.989 156.435 161.055C159.557 164.133 163.594 165.667 168.558 165.667C177.814 165.667 185.436 159.899 191.424 148.339C196.632 138.301 200.949 125.013 204.413 108.477C211.438 103.878 218.913 100.191 226.828 97.4043C236.085 94.1676 245.61 92.245 255.391 91.6366C256.305 91.5758 257.171 91.3568 257.988 90.9674C258.805 90.5902 259.537 90.0548 260.159 89.3977C260.781 88.7285 261.257 87.9862 261.586 87.1345C261.927 86.2949 262.086 85.4066 262.086 84.5062C262.086 83.5206 261.879 82.5715 261.488 81.6711C261.098 80.7706 260.537 79.9919 259.818 79.3227C259.098 78.6534 258.281 78.1424 257.354 77.8138C256.427 77.4853 255.476 77.3515 254.5 77.4123ZM128.141 80.5395C127.141 81.7441 125.934 82.681 124.507 83.3381C123.092 84.0073 121.604 84.3359 120.031 84.3359C117.214 84.3359 114.75 82.9244 112.665 80.1014C110.567 77.2784 109.519 73.19 109.506 67.8239C109.506 60.9977 110.799 55.7047 113.385 51.9569C115.97 48.2092 119.214 46.3353 123.129 46.3232H123.861C123.568 47.8685 123.422 49.4382 123.422 51.0078C123.409 54.719 124.214 58.2356 125.848 61.5574C127.434 64.8793 129.739 67.5562 132.788 69.6126C131.983 74.3581 130.434 78.0085 128.141 80.5395ZM178.339 142.973C175.314 148.619 172.582 151.454 170.155 151.454C168.765 151.552 167.728 151.016 167.009 149.824C166.326 148.558 166.009 147.208 166.058 145.772C166.058 141.866 167.741 137.315 171.107 132.095C174.46 126.875 179.887 121.107 187.388 114.768C184.375 127.921 181.351 137.327 178.339 142.973Z" fill="white"/>
</mask>
<g mask="url(#mask1_2095_1346)">
<path d="M91.1309 30.7846V165.642H262.089V30.7846H91.1309Z" fill="url(#paint0_linear_2095_1346)"/>
</g>
</g>
<mask id="mask2_2095_1346" style="mask-type:luminance" maskUnits="userSpaceOnUse" x="0" y="0" width="97" height="129">
<path d="M0 0H96.7846V128.847H0V0Z" fill="white"/>
</mask>
<g mask="url(#mask2_2095_1346)">
<mask id="mask3_2095_1346" style="mask-type:luminance" maskUnits="userSpaceOnUse" x="1" y="0" width="95" height="127">
<path d="M95.4408 10.4768C95.575 9.30866 95.4774 8.16486 95.1359 7.04542C94.7945 5.91379 94.2578 4.90386 93.5017 4.00343C92.7456 3.10299 91.8553 2.38509 90.8065 1.8497C89.7577 1.32647 88.6479 1.02228 87.4771 0.937099C73.8545 -0.0120035 60.293 0.511219 46.7802 2.48243C33.2674 4.45364 20.1327 7.8485 7.35169 12.667C6.24188 13.0686 5.26623 13.6648 4.41254 14.48C3.55884 15.2831 2.90028 16.2322 2.44904 17.3152C1.98561 18.3981 1.75389 19.5176 1.76608 20.6979C1.76608 21.8782 2.00999 22.9976 2.48563 24.0806C2.93686 25.0905 3.57104 25.9788 4.36375 26.7453C5.16867 27.5119 6.08334 28.1082 7.10777 28.534C8.13221 28.9599 9.19323 29.1789 10.303 29.1911C11.4128 29.2033 12.4861 29.0086 13.5227 28.6192C24.3768 24.5308 35.5358 21.5618 46.9875 19.7366C53.5 18.6902 60.0491 18.0331 66.6469 17.7411L65.5005 27.3294C64.9151 32.7928 64.0858 38.9741 63.0126 45.8977C45.8655 52.1399 32.0357 60.0125 21.5108 69.5157C10.9982 79.0067 5.74186 89.9457 5.74186 102.333C5.74186 109.268 7.99806 115.012 12.5348 119.587C17.0716 124.162 23.3768 126.45 31.4503 126.462C58.9149 126.462 76.9888 94.1437 85.6721 29.5196C85.7575 28.7409 86.2941 24.9567 87.2941 18.1548V18.0331C88.3064 17.9966 89.282 17.7654 90.2211 17.376C91.1602 16.9866 92.0017 16.4391 92.7456 15.7455C93.4895 15.0641 94.0993 14.261 94.5627 13.3484C95.0262 12.448 95.3189 11.4867 95.4408 10.4768ZM47.7071 99.9965C42.9264 107.212 38.1579 110.814 33.3772 110.826C30.8039 110.948 28.6697 110.047 26.9623 108.112C25.4012 106.312 24.6207 103.744 24.6207 100.435C24.6207 85.3341 36.5237 72.5577 60.3174 62.1298C56.6831 80.1627 52.4756 92.7809 47.7071 99.9965Z" fill="white"/>
</mask>
<g mask="url(#mask3_2095_1346)">
<path d="M1.75586 0V126.462H95.577V0H1.75586Z" fill="url(#paint1_linear_2095_1346)"/>
</g>
</g>
<defs>
<linearGradient id="paint0_linear_2095_1346" x1="82.2571" y1="50.6555" x2="274.997" y2="136.742" gradientUnits="userSpaceOnUse">
<stop stop-color="#B29797"/>
<stop offset="0.00390625" stop-color="#B39795"/>
<stop offset="0.0078125" stop-color="#B59794"/>
<stop offset="0.0117188" stop-color="#B79892"/>
<stop offset="0.015625" stop-color="#B99891"/>
<stop offset="0.0195313" stop-color="#BB988F"/>
<stop offset="0.0234375" stop-color="#BD998E"/>
<stop offset="0.0273437" stop-color="#BF998C"/>
<stop offset="0.03125" stop-color="#C1998B"/>
<stop offset="0.0351563" stop-color="#C39A89"/>
<stop offset="0.0390625" stop-color="#C59A88"/>
<stop offset="0.0429687" stop-color="#C79A86"/>
<stop offset="0.046875" stop-color="#C89B85"/>
<stop offset="0.0507813" stop-color="#CA9B83"/>
<stop offset="0.0546875" stop-color="#CC9B82"/>
<stop offset="0.0585937" stop-color="#CE9C80"/>
<stop offset="0.0625" stop-color="#D09C7F"/>
<stop offset="0.0664062" stop-color="#D29C7D"/>
<stop offset="0.0703125" stop-color="#D49D7C"/>
<stop offset="0.0742187" stop-color="#D69D7A"/>
<stop offset="0.078125" stop-color="#D89D79"/>
<stop offset="0.0820312" stop-color="#DA9E77"/>
<stop offset="0.0859375" stop-color="#DB9E76"/>
<stop offset="0.0898438" stop-color="#DD9E74"/>
<stop offset="0.09375" stop-color="#DF9F73"/>
<stop offset="0.0976562" stop-color="#E19F71"/>
<stop offset="0.101562" stop-color="#E39F70"/>
<stop offset="0.105469" stop-color="#E5A06E"/>
<stop offset="0.109375" stop-color="#E7A06D"/>
<stop offset="0.113281" stop-color="#E9A06B"/>
<stop offset="0.117188" stop-color="#EBA16A"/>
<stop offset="0.121094" stop-color="#EDA168"/>
<stop offset="0.125" stop-color="#EEA167"/>
<stop offset="0.128906" stop-color="#F0A165"/>
<stop offset="0.132812" stop-color="#F2A264"/>
<stop offset="0.136719" stop-color="#F4A262"/>
<stop offset="0.140625" stop-color="#F6A261"/>
<stop offset="0.144531" stop-color="#F8A360"/>
<stop offset="0.148437" stop-color="#FAA35E"/>
<stop offset="0.152344" stop-color="#FCA35D"/>
<stop offset="0.15625" stop-color="#FEA45B"/>
<stop offset="0.160156" stop-color="#FEA35B"/>
<stop offset="0.164062" stop-color="#FFA35A"/>
<stop offset="0.167969" stop-color="#FFA35A"/>
<stop offset="0.171875" stop-color="#FFA25A"/>
<stop offset="0.175781" stop-color="#FFA15A"/>
<stop offset="0.179687" stop-color="#FFA15A"/>
<stop offset="0.183594" stop-color="#FFA05A"/>
<stop offset="0.1875" stop-color="#FF9F5A"/>
<stop offset="0.191406" stop-color="#FF9F5A"/>
<stop offset="0.195312" stop-color="#FF9E5A"/>
<stop offset="0.199219" stop-color="#FF9D5A"/>
<stop offset="0.203125" stop-color="#FF9D5A"/>
<stop offset="0.207031" stop-color="#FF9C5A"/>
<stop offset="0.210937" stop-color="#FF9B5A"/>
<stop offset="0.214844" stop-color="#FF9B5A"/>
<stop offset="0.21875" stop-color="#FF9A5A"/>
<stop offset="0.222656" stop-color="#FF9A5A"/>
<stop offset="0.226562" stop-color="#FF995A"/>
<stop offset="0.230469" stop-color="#FF985A"/>
<stop offset="0.234375" stop-color="#FF985A"/>
<stop offset="0.238281" stop-color="#FF975A"/>
<stop offset="0.242188" stop-color="#FF965A"/>
<stop offset="0.246094" stop-color="#FF965A"/>
<stop offset="0.25" stop-color="#FF955A"/>
<stop offset="0.253906" stop-color="#FF945A"/>
<stop offset="0.257812" stop-color="#FF945A"/>
<stop offset="0.261719" stop-color="#FF935A"/>
<stop offset="0.265625" stop-color="#FF925A"/>
<stop offset="0.269531" stop-color="#FF925A"/>
<stop offset="0.273437" stop-color="#FF915A"/>
<stop offset="0.277344" stop-color="#FF915A"/>
<stop offset="0.28125" stop-color="#FF905A"/>
<stop offset="0.285156" stop-color="#FF8F5A"/>
<stop offset="0.289063" stop-color="#FF8F5A"/>
<stop offset="0.292969" stop-color="#FF8E5A"/>
<stop offset="0.296875" stop-color="#FF8D5A"/>
<stop offset="0.300781" stop-color="#FF8D5A"/>
<stop offset="0.304687" stop-color="#FF8C5A"/>
<stop offset="0.308594" stop-color="#FF8B5A"/>
<stop offset="0.3125" stop-color="#FF8B5A"/>
<stop offset="0.316406" stop-color="#FF8A5A"/>
<stop offset="0.320312" stop-color="#FF895A"/>
<stop offset="0.324219" stop-color="#FF895A"/>
<stop offset="0.328125" stop-color="#FF885A"/>
<stop offset="0.332031" stop-color="#FF885A"/>
<stop offset="0.335937" stop-color="#FF875A"/>
<stop offset="0.339844" stop-color="#FF865A"/>
<stop offset="0.34375" stop-color="#FF865A"/>
<stop offset="0.347656" stop-color="#FF855A"/>
<stop offset="0.351562" stop-color="#FF845A"/>
<stop offset="0.355469" stop-color="#FF845A"/>
<stop offset="0.359375" stop-color="#FF835A"/>
<stop offset="0.363281" stop-color="#FF825A"/>
<stop offset="0.367187" stop-color="#FF825A"/>
<stop offset="0.371094" stop-color="#FF815A"/>
<stop offset="0.375" stop-color="#FF805A"/>
<stop offset="0.378906" stop-color="#FF805A"/>
<stop offset="0.382812" stop-color="#FF7F5A"/>
<stop offset="0.386719" stop-color="#FF7F5A"/>
<stop offset="0.390625" stop-color="#FF7E5A"/>
<stop offset="0.394531" stop-color="#FF7D5A"/>
<stop offset="0.398437" stop-color="#FF7D5A"/>
<stop offset="0.402344" stop-color="#FF7C5A"/>
<stop offset="0.40625" stop-color="#FF7B5A"/>
<stop offset="0.410156" stop-color="#FF7B5A"/>
<stop offset="0.414062" stop-color="#FF7A5A"/>
<stop offset="0.417969" stop-color="#FF795A"/>
<stop offset="0.421875" stop-color="#FF795A"/>
<stop offset="0.425781" stop-color="#FF785A"/>
<stop offset="0.429688" stop-color="#FF775A"/>
<stop offset="0.433594" stop-color="#FF775A"/>
<stop offset="0.4375" stop-color="#FF765A"/>
<stop offset="0.441406" stop-color="#FF765A"/>
<stop offset="0.445312" stop-color="#FF755A"/>
<stop offset="0.449219" stop-color="#FF745A"/>
<stop offset="0.453125" stop-color="#FF745A"/>
<stop offset="0.457031" stop-color="#FF735A"/>
<stop offset="0.460937" stop-color="#FF725A"/>
<stop offset="0.464844" stop-color="#FF725A"/>
<stop offset="0.46875" stop-color="#FF715A"/>
<stop offset="0.472656" stop-color="#FF705A"/>
<stop offset="0.476563" stop-color="#FF705A"/>
<stop offset="0.480469" stop-color="#FF6F5A"/>
<stop offset="0.484375" stop-color="#FF6E5A"/>
<stop offset="0.488281" stop-color="#FF6E5A"/>
<stop offset="0.492187" stop-color="#FF6D5A"/>
<stop offset="0.496094" stop-color="#FF6C5A"/>
<stop offset="0.5" stop-color="#FF6C5A"/>
<stop offset="0.503906" stop-color="#FF6B5A"/>
<stop offset="0.507812" stop-color="#FF6B5A"/>
<stop offset="0.511719" stop-color="#FF6A5A"/>
<stop offset="0.515625" stop-color="#FF695A"/>
<stop offset="0.519531" stop-color="#FF695A"/>
<stop offset="0.523437" stop-color="#FF685A"/>
<stop offset="0.527344" stop-color="#FF675A"/>
<stop offset="0.53125" stop-color="#FF675A"/>
<stop offset="0.535156" stop-color="#FF665A"/>
<stop offset="0.539062" stop-color="#FF655A"/>
<stop offset="0.542969" stop-color="#FF655A"/>
<stop offset="0.546875" stop-color="#FF645A"/>
<stop offset="0.550781" stop-color="#FF635A"/>
<stop offset="0.554688" stop-color="#FF635A"/>
<stop offset="0.558594" stop-color="#FF625A"/>
<stop offset="0.5625" stop-color="#FF625A"/>
<stop offset="0.566406" stop-color="#FF615A"/>
<stop offset="0.570312" stop-color="#FF605A"/>
<stop offset="0.574219" stop-color="#FF605A"/>
<stop offset="0.578125" stop-color="#FF5F5A"/>
<stop offset="0.582031" stop-color="#FF5E5A"/>
<stop offset="0.585938" stop-color="#FF5E5A"/>
<stop offset="0.589844" stop-color="#FF5D5A"/>
<stop offset="0.59375" stop-color="#FF5C5A"/>
<stop offset="0.597656" stop-color="#FF5C5A"/>
<stop offset="0.601563" stop-color="#FF5B5A"/>
<stop offset="0.605469" stop-color="#FF5A5A"/>
<stop offset="0.609375" stop-color="#FF5A5A"/>
<stop offset="0.613281" stop-color="#FF595A"/>
<stop offset="0.617187" stop-color="#FF595A"/>
<stop offset="0.621094" stop-color="#FF585A"/>
<stop offset="0.625" stop-color="#FF575A"/>
<stop offset="0.628906" stop-color="#FF575A"/>
<stop offset="0.632813" stop-color="#FF565A"/>
<stop offset="0.636719" stop-color="#FF555A"/>
<stop offset="0.640625" stop-color="#FF555A"/>
<stop offset="0.644531" stop-color="#FF545A"/>
<stop offset="0.648437" stop-color="#FF535A"/>
<stop offset="0.652344" stop-color="#FF535A"/>
<stop offset="0.65625" stop-color="#FF525A"/>
<stop offset="0.660156" stop-color="#FF515A"/>
<stop offset="0.664062" stop-color="#FF515A"/>
<stop offset="0.667969" stop-color="#FF505A"/>
<stop offset="0.671875" stop-color="#FF505A"/>
<stop offset="0.675781" stop-color="#FF4F5A"/>
<stop offset="0.679687" stop-color="#FF4E5A"/>
<stop offset="0.683594" stop-color="#FF4E5A"/>
<stop offset="0.6875" stop-color="#FF4D5A"/>
<stop offset="0.691406" stop-color="#FF4C5A"/>
<stop offset="0.695312" stop-color="#FF4C5A"/>
<stop offset="0.703125" stop-color="#FF4C5A"/>
<stop offset="0.71875" stop-color="#FF4C5A"/>
<stop offset="0.739477" stop-color="#FF4C5A"/>
<stop offset="0.75" stop-color="#FF4C5A"/>
<stop offset="1" stop-color="#FF4C5A"/>
</linearGradient>
<linearGradient id="paint1_linear_2095_1346" x1="-12.829" y1="32.6576" x2="112.477" y2="88.6253" gradientUnits="userSpaceOnUse">
<stop stop-color="#2C80FF"/>
<stop offset="0.25" stop-color="#2C80FF"/>
<stop offset="0.265625" stop-color="#2C80FF"/>
<stop offset="0.269531" stop-color="#2E80FE"/>
<stop offset="0.273438" stop-color="#2F81FD"/>
<stop offset="0.277344" stop-color="#3081FC"/>
<stop offset="0.28125" stop-color="#3181FB"/>
<stop offset="0.285156" stop-color="#3381FA"/>
<stop offset="0.289063" stop-color="#3481F9"/>
<stop offset="0.292969" stop-color="#3582F8"/>
<stop offset="0.296875" stop-color="#3682F7"/>
<stop offset="0.300781" stop-color="#3882F6"/>
<stop offset="0.304688" stop-color="#3982F5"/>
<stop offset="0.308594" stop-color="#3A82F4"/>
<stop offset="0.3125" stop-color="#3B83F3"/>
<stop offset="0.316406" stop-color="#3D83F2"/>
<stop offset="0.320312" stop-color="#3E83F1"/>
<stop offset="0.324219" stop-color="#3F83F0"/>
<stop offset="0.328125" stop-color="#4083EF"/>
<stop offset="0.332031" stop-color="#4284EE"/>
<stop offset="0.335938" stop-color="#4384ED"/>
<stop offset="0.339844" stop-color="#4484EC"/>
<stop offset="0.34375" stop-color="#4584EB"/>
<stop offset="0.347656" stop-color="#4685EA"/>
<stop offset="0.351562" stop-color="#4885E9"/>
<stop offset="0.355469" stop-color="#4985E8"/>
<stop offset="0.359375" stop-color="#4A85E7"/>
<stop offset="0.363281" stop-color="#4B85E6"/>
<stop offset="0.367188" stop-color="#4D86E5"/>
<stop offset="0.371094" stop-color="#4E86E4"/>
<stop offset="0.375" stop-color="#4F86E4"/>
<stop offset="0.378906" stop-color="#5086E3"/>
<stop offset="0.382813" stop-color="#5286E2"/>
<stop offset="0.386719" stop-color="#5387E1"/>
<stop offset="0.390625" stop-color="#5487E0"/>
<stop offset="0.394531" stop-color="#5587DF"/>
<stop offset="0.398438" stop-color="#5787DE"/>
<stop offset="0.402344" stop-color="#5887DD"/>
<stop offset="0.40625" stop-color="#5988DC"/>
<stop offset="0.410156" stop-color="#5A88DB"/>
<stop offset="0.414063" stop-color="#5C88DA"/>
<stop offset="0.417969" stop-color="#5D88D9"/>
<stop offset="0.421875" stop-color="#5E89D8"/>
<stop offset="0.425781" stop-color="#5F89D7"/>
<stop offset="0.429688" stop-color="#6089D6"/>
<stop offset="0.433594" stop-color="#6289D5"/>
<stop offset="0.4375" stop-color="#6389D4"/>
<stop offset="0.441406" stop-color="#648AD3"/>
<stop offset="0.445312" stop-color="#658AD2"/>
<stop offset="0.449219" stop-color="#678AD1"/>
<stop offset="0.453125" stop-color="#688AD0"/>
<stop offset="0.457031" stop-color="#698ACF"/>
<stop offset="0.460938" stop-color="#6A8BCE"/>
<stop offset="0.464844" stop-color="#6C8BCD"/>
<stop offset="0.46875" stop-color="#6D8BCC"/>
<stop offset="0.472656" stop-color="#6E8BCB"/>
<stop offset="0.476562" stop-color="#6F8BCA"/>
<stop offset="0.480469" stop-color="#718CC9"/>
<stop offset="0.484375" stop-color="#728CC8"/>
<stop offset="0.488281" stop-color="#738CC7"/>
<stop offset="0.492188" stop-color="#748CC7"/>
<stop offset="0.496094" stop-color="#758DC6"/>
<stop offset="0.5" stop-color="#778DC5"/>
<stop offset="0.503906" stop-color="#788DC4"/>
<stop offset="0.507812" stop-color="#798DC3"/>
<stop offset="0.511719" stop-color="#7A8DC2"/>
<stop offset="0.515625" stop-color="#7C8EC1"/>
<stop offset="0.519531" stop-color="#7D8EC0"/>
<stop offset="0.523438" stop-color="#7E8EBF"/>
<stop offset="0.527344" stop-color="#7F8EBE"/>
<stop offset="0.53125" stop-color="#818EBD"/>
<stop offset="0.535156" stop-color="#828FBC"/>
<stop offset="0.539062" stop-color="#838FBB"/>
<stop offset="0.542969" stop-color="#848FBA"/>
<stop offset="0.546875" stop-color="#868FB9"/>
<stop offset="0.550781" stop-color="#878FB8"/>
<stop offset="0.554688" stop-color="#8890B7"/>
<stop offset="0.558594" stop-color="#8990B6"/>
<stop offset="0.5625" stop-color="#8A90B5"/>
<stop offset="0.566406" stop-color="#8C90B4"/>
<stop offset="0.570312" stop-color="#8D91B3"/>
<stop offset="0.574219" stop-color="#8E91B2"/>
<stop offset="0.578125" stop-color="#8F91B1"/>
<stop offset="0.582031" stop-color="#9191B0"/>
<stop offset="0.585938" stop-color="#9291AF"/>
<stop offset="0.589844" stop-color="#9392AE"/>
<stop offset="0.59375" stop-color="#9492AD"/>
<stop offset="0.597656" stop-color="#9692AC"/>
<stop offset="0.601562" stop-color="#9792AB"/>
<stop offset="0.605469" stop-color="#9892AA"/>
<stop offset="0.609375" stop-color="#9993A9"/>
<stop offset="0.613281" stop-color="#9B93A9"/>
<stop offset="0.617188" stop-color="#9C93A8"/>
<stop offset="0.621094" stop-color="#9D93A7"/>
<stop offset="0.625" stop-color="#9E93A6"/>
<stop offset="0.628906" stop-color="#A094A5"/>
<stop offset="0.632812" stop-color="#A194A4"/>
<stop offset="0.636719" stop-color="#A294A3"/>
<stop offset="0.640625" stop-color="#A394A2"/>
<stop offset="0.644531" stop-color="#A495A1"/>
<stop offset="0.648438" stop-color="#A695A0"/>
<stop offset="0.652344" stop-color="#A7959F"/>
<stop offset="0.65625" stop-color="#A8959E"/>
<stop offset="0.660156" stop-color="#A9959D"/>
<stop offset="0.664062" stop-color="#AB969C"/>
<stop offset="0.667969" stop-color="#AC969B"/>
<stop offset="0.671875" stop-color="#AD969A"/>
<stop offset="0.675781" stop-color="#AE9699"/>
<stop offset="0.679688" stop-color="#B09698"/>
<stop offset="0.683594" stop-color="#B19797"/>
<stop offset="0.6875" stop-color="#B29796"/>
<stop offset="0.691406" stop-color="#B39795"/>
<stop offset="0.695312" stop-color="#B59794"/>
<stop offset="0.699219" stop-color="#B69793"/>
<stop offset="0.703125" stop-color="#B79892"/>
<stop offset="0.707031" stop-color="#B89891"/>
<stop offset="0.710938" stop-color="#B99890"/>
<stop offset="0.714844" stop-color="#BB988F"/>
<stop offset="0.71875" stop-color="#BC998E"/>
<stop offset="0.722656" stop-color="#BD998D"/>
<stop offset="0.726563" stop-color="#BE998C"/>
<stop offset="0.730469" stop-color="#C0998C"/>
<stop offset="0.734375" stop-color="#C1998B"/>
<stop offset="0.738281" stop-color="#C29A8A"/>
<stop offset="0.742187" stop-color="#C39A89"/>
<stop offset="0.746094" stop-color="#C59A88"/>
<stop offset="0.75" stop-color="#C69A87"/>
<stop offset="0.753906" stop-color="#C79A86"/>
<stop offset="0.757813" stop-color="#C89B85"/>
<stop offset="0.761719" stop-color="#CA9B84"/>
<stop offset="0.765625" stop-color="#CB9B83"/>
<stop offset="0.769531" stop-color="#CC9B82"/>
<stop offset="0.773438" stop-color="#CD9C81"/>
<stop offset="0.777344" stop-color="#CE9C80"/>
<stop offset="0.78125" stop-color="#D09C7F"/>
<stop offset="0.785156" stop-color="#D19C7E"/>
<stop offset="0.789062" stop-color="#D29C7D"/>
<stop offset="0.792969" stop-color="#D39D7C"/>
<stop offset="0.796875" stop-color="#D59D7B"/>
<stop offset="0.800781" stop-color="#D69D7A"/>
<stop offset="0.804688" stop-color="#D79D79"/>
<stop offset="0.808594" stop-color="#D89D78"/>
<stop offset="0.8125" stop-color="#DA9E77"/>
<stop offset="0.816406" stop-color="#DB9E76"/>
<stop offset="0.820312" stop-color="#DC9E75"/>
<stop offset="0.824219" stop-color="#DD9E74"/>
<stop offset="0.828125" stop-color="#DF9E73"/>
<stop offset="0.832031" stop-color="#E09F72"/>
<stop offset="0.835938" stop-color="#E19F71"/>
<stop offset="0.839844" stop-color="#E29F70"/>
<stop offset="0.84375" stop-color="#E49F6F"/>
<stop offset="0.847656" stop-color="#E5A06F"/>
<stop offset="0.851562" stop-color="#E6A06E"/>
<stop offset="0.855469" stop-color="#E7A06D"/>
<stop offset="0.859375" stop-color="#E8A06C"/>
<stop offset="0.863281" stop-color="#EAA06B"/>
<stop offset="0.867188" stop-color="#EBA16A"/>
<stop offset="0.871094" stop-color="#ECA169"/>
<stop offset="0.875" stop-color="#EDA168"/>
<stop offset="0.878906" stop-color="#EFA167"/>
<stop offset="0.882812" stop-color="#F0A166"/>
<stop offset="0.886719" stop-color="#F1A265"/>
<stop offset="0.890625" stop-color="#F2A264"/>
<stop offset="0.894531" stop-color="#F4A263"/>
<stop offset="0.898438" stop-color="#F5A262"/>
<stop offset="0.902344" stop-color="#F6A261"/>
<stop offset="0.90625" stop-color="#F7A360"/>
<stop offset="0.910156" stop-color="#F9A35F"/>
<stop offset="0.914062" stop-color="#FAA35E"/>
<stop offset="0.917969" stop-color="#FBA35D"/>
<stop offset="0.921875" stop-color="#FCA45C"/>
<stop offset="0.925781" stop-color="#FDA45B"/>
<stop offset="0.929688" stop-color="#FFA45A"/>
<stop offset="0.9375" stop-color="#FFA45A"/>
<stop offset="0.945312" stop-color="#FFA35A"/>
<stop offset="0.953125" stop-color="#FFA25A"/>
<stop offset="0.960938" stop-color="#FFA15A"/>
<stop offset="0.96875" stop-color="#FFA05A"/>
<stop offset="0.976562" stop-color="#FF9F5A"/>
<stop offset="0.984375" stop-color="#FF9F5A"/>
<stop offset="0.992188" stop-color="#FF9E5A"/>
<stop offset="1" stop-color="#FF9D5A"/>
</linearGradient>
</defs>
</svg>
