<svg id="Capa_1" data-name="Capa 1" xmlns="http://www.w3.org/2000/svg" xmlns:xlink="http://www.w3.org/1999/xlink" viewBox="0 0 555.78 171"><defs><style>.cls-1{fill:url(#Degradado_sin_nombre_3);}</style><radialGradient id="Degradado_sin_nombre_3" cx="64.65" cy="-14.8" r="228.87" gradientUnits="userSpaceOnUse"><stop offset="0.16" stop-color="#ffa45a"/><stop offset="0.27" stop-color="#ff9e5a"/><stop offset="0.41" stop-color="#ff8e5a"/><stop offset="0.57" stop-color="#ff735a"/><stop offset="0.74" stop-color="#ff4e5a"/><stop offset="0.74" stop-color="#ff4c5a"/></radialGradient></defs><path d="M85,113.42l26.39,56.38H97.82L74.74,118.6H79L55.88,169.8H42.27l26.38-56.38Zm-28,44.5V147.55H96.09v10.37Z"/><path class="cls-1" d="M24.05,167.76a42.32,42.32,0,0,1-3.58-14.95c-.75-10.41,1.72-20.18,6.17-29.5,4-8.45,9.51-16,15.48-23.13,6.15-7.4,12.43-14.69,18.5-22.16A72.16,72.16,0,0,0,71.15,61.29C76.06,50,76,38.53,71.77,27.06A64.76,64.76,0,0,0,61,8.64C58.65,5.81,55.9,2.77,53.52,0l.23,1.62c.12.85.21,1.7.26,2.56.15,2.45.24,4.27.2,7a60,60,0,0,1-5.54,23.51A107.6,107.6,0,0,1,35.09,56.75c-5.59,7.27-11.4,14.38-17,21.69A95.83,95.83,0,0,0,4.33,102.67c-3.51,9.36-5.28,19-3.81,29,1.92,13.11,7.64,24.25,17.63,33.07,2.06,1.82,4.68,3.46,6.88,5.14Z"/><path class="cls-1" d="M65.29,108.32v0H88.37v0h0l17.79,38.24a50.34,50.34,0,0,0,4.91-28.73c-.86-8-3.5-15.43-6.93-22.62-3.3-6.93-7.49-13.35-11.52-19.87-3.75-6-7.59-12.06-10.37-18.64-.64-1.52-1.17-3.08-1.84-4.84-.06.4-.09.57-.1.74A64.78,64.78,0,0,1,75.91,71,75.63,75.63,0,0,1,63.47,90.66c-4.93,5.83-10,11.5-15,17.3a93.25,93.25,0,0,0-13.38,20c-4.19,8.68-4.79,17.73-3.63,27.42a87,87,0,0,0,3.47,14.39Z"/><path d="M126.9,138.73h21.6a10.6,10.6,0,0,0,6.76-2,6.61,6.61,0,0,0,2.5-5.5,6.5,6.5,0,0,0-2.5-5.45,10.78,10.78,0,0,0-6.76-1.94H125l5.75-6.5v52.52h-12.7v-56H150a24.79,24.79,0,0,1,10.76,2.2,17.69,17.69,0,0,1,7.25,6.09,17.1,17.1,0,0,1,0,18.16,17.6,17.6,0,0,1-7.25,6.08A24.79,24.79,0,0,1,150,148.59H126.9Zm9.72,4.93h14.49l21.15,26.22H157.39Z"/><path d="M180.1,113.85h12.7v56H180.1Z"/><path d="M201.25,151.58H214.1a9.06,9.06,0,0,0,2.5,5,13.36,13.36,0,0,0,5.53,3.28,25.12,25.12,0,0,0,8,1.16q6.65,0,10.5-1.9c2.56-1.27,3.85-3.05,3.85-5.35a4.68,4.68,0,0,0-2.21-4.14c-1.47-1-4.19-1.68-8.18-2.13l-11.28-1.27q-10.9-1.2-15.8-5.12c-3.27-2.62-4.9-6.26-4.9-11a14.22,14.22,0,0,1,3.25-9.41,20.33,20.33,0,0,1,9.15-5.94,42.35,42.35,0,0,1,13.9-2.06A39,39,0,0,1,242.26,115a23.67,23.67,0,0,1,9.64,6.35,15.34,15.34,0,0,1,3.89,9.53H242.94a7.62,7.62,0,0,0-2.21-4.3,12.09,12.09,0,0,0-5-2.83,25,25,0,0,0-7.55-1,21.73,21.73,0,0,0-9.64,1.79q-3.58,1.8-3.58,5.08a4.41,4.41,0,0,0,2.13,3.92c1.42.93,3.92,1.61,7.51,2.06L236.29,137a48,48,0,0,1,12.36,2.65,13.39,13.39,0,0,1,6.58,4.89,14.09,14.09,0,0,1,2,7.77,15.24,15.24,0,0,1-3.4,9.83,21.86,21.86,0,0,1-9.53,6.54A40.54,40.54,0,0,1,229.94,171a41.26,41.26,0,0,1-14.72-2.42,23.82,23.82,0,0,1-10-6.8A16.72,16.72,0,0,1,201.25,151.58Z"/><path d="M280.37,141.86l-3.74,23.76-5.52-6.27h43.18v10.53H263.86l4.33-28-4.33-28h50.06v10.53H271.11l5.52-6.28ZM312,137v9.71H271.85V137Z"/><path d="M377.35,113.85l26.23,56H390.06L367.12,119h4.18l-22.94,50.88H334.84l26.23-56Zm-27.87,44.23V147.77h38.86v10.31Z"/><path d="M403.88,151.58h12.85a9.06,9.06,0,0,0,2.5,5,13.42,13.42,0,0,0,5.53,3.28,25.21,25.21,0,0,0,8,1.16q6.66,0,10.5-1.9t3.85-5.35a4.69,4.69,0,0,0-2.2-4.14q-2.2-1.46-8.19-2.13l-11.28-1.27q-10.91-1.2-15.8-5.12c-3.26-2.62-4.89-6.26-4.89-11a14.17,14.17,0,0,1,3.25-9.41,20.22,20.22,0,0,1,9.15-5.94,42.26,42.26,0,0,1,13.9-2.06A39,39,0,0,1,444.9,115a23.73,23.73,0,0,1,9.64,6.35,15.33,15.33,0,0,1,3.88,9.53H445.57a7.6,7.6,0,0,0-2.2-4.3,12.14,12.14,0,0,0-5.05-2.83,25,25,0,0,0-7.54-1,21.67,21.67,0,0,0-9.64,1.79q-3.58,1.8-3.59,5.08a4.41,4.41,0,0,0,2.13,3.92c1.42.93,3.92,1.61,7.51,2.06L438.92,137a48.2,48.2,0,0,1,12.37,2.65,13.41,13.41,0,0,1,6.57,4.89,14.09,14.09,0,0,1,2,7.77,15.18,15.18,0,0,1-3.4,9.83,21.88,21.88,0,0,1-9.52,6.54A40.63,40.63,0,0,1,432.57,171a41.26,41.26,0,0,1-14.72-2.42,23.89,23.89,0,0,1-10-6.8A16.84,16.84,0,0,1,403.88,151.58Z"/><path d="M468.36,113.85h12.7v56h-12.7Z"/><path d="M529.55,113.85l26.23,56H542.25L519.32,119h4.18l-22.94,50.88H487l26.22-56Zm-27.87,44.23V147.77h38.86v10.31Z"/></svg>